<svg id="Layer_1" data-name="Layer 1" xmlns="http://www.w3.org/2000/svg" viewBox="0 0 25 25"><title>Leaf</title><path id="Nature" d="M24.76,4.12C18.34.3,11.9,0,6.13,3.19,2.83,5,.51,8,.08,11.08a7.06,7.06,0,0,0,1.44,5.4A19.32,19.32,0,0,1,9.4,8.61a.5.5,0,1,1,.49.87c-6.53,3.64-8.66,9.11-9.87,14a.49.49,0,0,0,.1.3c.19.24.52.19,1.13.2H2.33c1.09,0,1.1-.07,1.17-.42a20.69,20.69,0,0,1,1.4-4.38c4.86,2.14,11.53-1,14.32-4.36A14.47,14.47,0,0,0,21.67,10C22.35,8.14,23,6.34,24.8,5a.5.5,0,0,0,0-.83Z" fill="#606840"></path></svg>