<?xml version="1.0" encoding="UTF-8" standalone="no"?>
<!-- Created with Inkscape (http://www.inkscape.org/) -->

<svg
   xmlns:dc="http://purl.org/dc/elements/1.1/"
   xmlns:cc="http://creativecommons.org/ns#"
   xmlns:rdf="http://www.w3.org/1999/02/22-rdf-syntax-ns#"
   xmlns:svg="http://www.w3.org/2000/svg"
   xmlns="http://www.w3.org/2000/svg"
   xmlns:sodipodi="http://sodipodi.sourceforge.net/DTD/sodipodi-0.dtd"
   xmlns:inkscape="http://www.inkscape.org/namespaces/inkscape"
   width="64"
   height="64"
   viewBox="0 0 16.933333 16.933333"
   version="1.1"
   id="svg8"
   inkscape:version="0.92.3 (2405546, 2018-03-11)"
   sodipodi:docname="37-Crescent Moon.svg">
  <defs
     id="defs2" />
  <sodipodi:namedview
     id="base"
     pagecolor="#ffffff"
     bordercolor="#666666"
     borderopacity="1.0"
     inkscape:pageopacity="0.0"
     inkscape:pageshadow="2"
     inkscape:zoom="2"
     inkscape:cx="64.518256"
     inkscape:cy="-48.20447"
     inkscape:document-units="px"
     inkscape:current-layer="layer2"
     showgrid="false"
     inkscape:snap-smooth-nodes="true"
     inkscape:snap-page="true"
     inkscape:snap-midpoints="false"
     inkscape:snap-intersection-paths="true"
     inkscape:object-paths="true"
     inkscape:object-nodes="true"
     units="px"
     inkscape:snap-bbox="true"
     inkscape:bbox-paths="false"
     inkscape:snap-bbox-midpoints="false"
     inkscape:window-width="1920"
     inkscape:window-height="1040"
     inkscape:window-x="0"
     inkscape:window-y="0"
     inkscape:window-maximized="1"
     inkscape:snap-grids="true"
     inkscape:snap-to-guides="false"
     inkscape:snap-bbox-edge-midpoints="false"
     inkscape:snap-nodes="true"
     inkscape:snap-others="false"
     inkscape:bbox-nodes="true"
     showguides="true"
     inkscape:guide-bbox="true"
     inkscape:measure-start="0,0"
     inkscape:measure-end="0,0"
     inkscape:snap-global="true">
    <inkscape:grid
       type="xygrid"
       id="grid815"
       enabled="true" />
  </sodipodi:namedview>
  <metadata
     id="metadata5">
    <rdf:RDF>
      <cc:Work
         rdf:about="">
        <dc:format>image/svg+xml</dc:format>
        <dc:type
           rdf:resource="http://purl.org/dc/dcmitype/StillImage" />
        <dc:title />
      </cc:Work>
    </rdf:RDF>
  </metadata>
  <g
     inkscape:groupmode="layer"
     id="layer2"
     inkscape:label="37-Crescent Moon">
    <path
       sodipodi:nodetypes="ccccc"
       inkscape:connector-curvature="0"
       id="path5908"
       d="m 16.139153,8.4666256 c 0,4.2376104 -3.43516,7.6728724 -7.6726459,7.6728724 -4.2374853,0 -7.67264595,-3.435262 -7.67264612,-7.6728724 3e-8,-4.2376109 3.43516072,-7.67287325 7.67264612,-7.67287324 4.2374859,-1.7e-7 7.6726459,3.43526224 7.6726459,7.67287324 z"
       style="opacity:1;fill:#e4eff8;fill-opacity:1;stroke:none;stroke-width:0.52915561;stroke-linecap:butt;stroke-linejoin:round;stroke-miterlimit:4;stroke-dasharray:none;stroke-dashoffset:0;stroke-opacity:1" />
    <path
       sodipodi:nodetypes="ccccccc"
       inkscape:connector-curvature="0"
       id="path5910"
       d="m 7.9854199,3.1749873 c -0.029354,0.083076 -0.048057,0.1712058 -0.048057,0.2645818 0,0.4397274 0.3539994,0.7937452 0.7937217,0.7937452 H 14.860208 C 14.737948,4.0514431 14.607954,3.8748933 14.470581,3.7041507 H 8.7310842 c -0.3463495,0 -0.6367762,-0.2210099 -0.7456643,-0.5291634 z"
       style="opacity:1;fill:#c4dcf0;fill-opacity:1;stroke:none;stroke-width:0.52915561;stroke-linecap:butt;stroke-linejoin:round;stroke-miterlimit:4;stroke-dasharray:none;stroke-dashoffset:0;stroke-opacity:1" />
    <path
       sodipodi:nodetypes="cccccccccccc"
       inkscape:connector-curvature="0"
       id="path5912"
       d="m 1.1824598,10.847858 c 1.0292419,3.152794 3.9676009,5.287418 7.2840505,5.291634 0.176544,-1.11e-4 0.3530317,-0.0063 0.5291478,-0.0186 v -1.304305 c 0,-0.439737 -0.3539993,-0.793746 -0.7937217,-0.793746 H 7.6727886 c -0.4397214,0 -0.7937217,-0.354017 -0.7937217,-0.793744 0,-0.439737 -0.3539999,-0.793745 -0.7937218,-0.793745 H 5.1593364 c -0.4397219,0 -0.7937218,-0.354018 -0.7937218,-0.793746 0,-0.439737 -0.3539999,-0.793745 -0.7937216,-0.793745 z"
       style="opacity:1;fill:#c4dcf0;fill-opacity:1;stroke:none;stroke-width:0.52915561;stroke-linecap:butt;stroke-linejoin:round;stroke-miterlimit:4;stroke-dasharray:none;stroke-dashoffset:0;stroke-opacity:1" />
    <path
       sodipodi:nodetypes="cccccccccc"
       inkscape:connector-curvature="0"
       id="path5914"
       d="M 1.2744406,5.8208047 C 0.95975145,6.6675765 0.7970622,7.5632686 0.79386688,8.4666222 c 1.1139e-4,0.1765492 0.006316,0.3530421 0.0186027,0.5291634 H 5.2916234 c 0.4397218,0 0.7937217,-0.3540178 0.7937217,-0.7937452 0,-0.4397372 -0.3539999,-0.7937453 -0.7937217,-0.7937453 H 4.7624756 c -0.439722,0 -0.7937218,-0.3540177 -0.7937218,-0.7937452 0,-0.4397372 -0.3539999,-0.7937452 -0.7937217,-0.7937452 z"
       style="opacity:1;fill:#c4dcf0;fill-opacity:1;stroke:none;stroke-width:0.52915561;stroke-linecap:butt;stroke-linejoin:round;stroke-miterlimit:4;stroke-dasharray:none;stroke-dashoffset:0;stroke-opacity:1" />
    <path
       sodipodi:nodetypes="ccccccccccc"
       inkscape:connector-curvature="0"
       id="path5916"
       d="m 1.1824598,10.847858 c 1.0292419,3.152794 3.9676009,5.287418 7.2840505,5.291634 v -1.322908 c 0,-0.439737 -0.3539994,-0.793746 -0.7937217,-0.793746 H 7.1436408 c -0.4397214,0 -0.7937218,-0.354017 -0.7937218,-0.793744 0,-0.439737 -0.3539999,-0.793745 -0.7937217,-0.793745 H 4.6301887 c -0.4397219,0 -0.7937218,-0.354018 -0.7937218,-0.793746 0,-0.439737 -0.3539999,-0.793745 -0.7937217,-0.793745 z"
       style="opacity:1;fill:#ffc6a0;fill-opacity:1;stroke:none;stroke-width:0.52915561;stroke-linecap:butt;stroke-linejoin:round;stroke-miterlimit:4;stroke-dasharray:none;stroke-dashoffset:0;stroke-opacity:1" />
    <path
       sodipodi:nodetypes="ccccccc"
       inkscape:connector-curvature="0"
       id="path5919"
       d="m 2.5135973,10.847858 c 0.4397218,0 0.7937217,0.354008 0.7937217,0.793745 0,0.439728 0.3539999,0.793746 0.7937217,0.793746 h 0.529148 c -0.4397219,0 -0.7937218,-0.354018 -0.7937218,-0.793746 0,-0.439737 -0.3539999,-0.793745 -0.7937217,-0.793745 z"
       style="opacity:1;fill:#ffaf7a;fill-opacity:1;stroke:none;stroke-width:0.52915561;stroke-linecap:butt;stroke-linejoin:round;stroke-miterlimit:4;stroke-dasharray:none;stroke-dashoffset:0;stroke-opacity:1" />
    <path
       sodipodi:nodetypes="ccccccc"
       inkscape:connector-curvature="0"
       id="path5921"
       d="m 5.0270495,12.435349 c 0.4397218,0 0.7937217,0.354008 0.7937217,0.793745 0,0.439727 0.3540004,0.793744 0.7937216,0.793744 h 0.529148 c -0.4397214,0 -0.7937218,-0.354017 -0.7937218,-0.793744 0,-0.439737 -0.3539999,-0.793745 -0.7937217,-0.793745 z"
       style="opacity:1;fill:#ffaf7a;fill-opacity:1;stroke:none;stroke-width:0.52915561;stroke-linecap:butt;stroke-linejoin:round;stroke-miterlimit:4;stroke-dasharray:none;stroke-dashoffset:0;stroke-opacity:1" />
    <path
       sodipodi:nodetypes="ccccccc"
       inkscape:connector-curvature="0"
       id="path5924"
       d="m 7.1436408,14.022838 c 0.4397223,0 0.7937217,0.354009 0.7937217,0.793746 v 1.29862 c 0.1760504,0.01418 0.3525381,0.02229 0.5291478,0.02429 v -1.322908 c 0,-0.439738 -0.3539994,-0.793746 -0.7937217,-0.793746 z"
       style="opacity:1;fill:#ffaf7a;fill-opacity:1;stroke:none;stroke-width:0.52915561;stroke-linecap:butt;stroke-linejoin:round;stroke-miterlimit:4;stroke-dasharray:none;stroke-dashoffset:0;stroke-opacity:1" />
    <path
       sodipodi:nodetypes="ccccccccc"
       inkscape:connector-curvature="0"
       id="path5926"
       d="M 1.4899237,5.2916412 C 1.033837,6.2881148 0.79649323,7.3707298 0.79386688,8.4666222 H 5.0270495 c 0.4397218,0 0.7937217,-0.3540178 0.7937217,-0.7937452 0,-0.4397374 -0.3539999,-0.7937453 -0.7937217,-0.7937453 H 4.4979016 c -0.4397218,0 -0.7937217,-0.3540178 -0.7937217,-0.7937452 0,-0.4397373 -0.3539999,-0.7937453 -0.7937217,-0.7937453 z"
       style="opacity:1;fill:#ffc6a0;fill-opacity:1;stroke:none;stroke-width:0.52915561;stroke-linecap:butt;stroke-linejoin:round;stroke-miterlimit:4;stroke-dasharray:none;stroke-dashoffset:0;stroke-opacity:1" />
    <path
       sodipodi:nodetypes="cccccccc"
       inkscape:connector-curvature="0"
       id="path5930"
       d="m 13.840152,4.7624777 c -2.384168,3.87e-5 -4.3168965,2.0138013 -4.3168962,4.4978897 -3e-7,2.4840886 1.9327282,4.4978516 4.3168962,4.4978896 0.05966,-0.002 0.119268,-0.0053 0.178793,-0.0098 0.445896,-0.465653 0.831325,-0.985651 1.147177,-1.5477 -1.470884,-0.756843 -2.402959,-2.3168891 -2.405453,-4.0261052 0.002,-1.3015127 0.544993,-2.5383141 1.488745,-3.3909871 -0.136023,-0.013808 -0.272597,-0.020878 -0.409262,-0.021187 z"
       style="opacity:1;fill:#c4dcf0;fill-opacity:1;stroke:none;stroke-width:0.52915561;stroke-linecap:round;stroke-linejoin:round;stroke-miterlimit:4;stroke-dasharray:none;stroke-dashoffset:0;stroke-opacity:1" />
    <path
       sodipodi:nodetypes="ccccccc"
       inkscape:connector-curvature="0"
       id="path5932"
       d="m 8.1564628,0.80460363 c 4.1474702,0.11848628 7.4493662,3.51273567 7.4535432,7.66201847 -0.0025,4.1152159 -3.250863,7.4957239 -7.3625959,7.6620179 0.072978,0.0047 0.1460189,0.0083 0.2191002,0.01085 4.2374837,-10e-7 7.6726417,-3.435261 7.6726427,-7.6728699 -1e-6,-4.2376087 -3.435159,-7.6728691 -7.6726427,-7.67286954 -0.1034118,0.001528 -0.206782,0.005146 -0.3100475,0.0108531 z"
       style="opacity:1;fill:#c4dcf0;fill-opacity:1;stroke:none;stroke-width:0.52915561;stroke-linecap:butt;stroke-linejoin:round;stroke-miterlimit:4;stroke-dasharray:none;stroke-dashoffset:0;stroke-opacity:1" />
    <path
       sodipodi:nodetypes="cccccccc"
       inkscape:connector-curvature="0"
       id="path5934"
       d="M 10.053954,0.96273252 V 1.3229151 c 0,0.4397274 -0.3540007,0.7937452 -0.7937219,0.7937452 H 8.7310842 c -0.4397223,0 -0.7937217,0.3540078 -0.7937217,0.7937452 0,0.4397275 0.3539994,0.7937452 0.7937217,0.7937452 H 14.481949 C 13.370694,2.3020321 11.804415,1.3323323 10.053954,0.96273252 Z"
       style="opacity:1;fill:#ffc6a0;fill-opacity:1;stroke:none;stroke-width:0.52915561;stroke-linecap:butt;stroke-linejoin:round;stroke-miterlimit:4;stroke-dasharray:none;stroke-dashoffset:0;stroke-opacity:1" />
    <path
       sodipodi:nodetypes="ccccccc"
       inkscape:connector-curvature="0"
       id="path5937"
       d="m 7.9854199,2.6458238 c -0.029354,0.083076 -0.048057,0.1712058 -0.048057,0.2645817 0,0.4397275 0.3539994,0.7937452 0.7937217,0.7937452 H 14.481949 C 14.335446,3.5207575 14.180603,3.3441841 14.017912,3.1749873 H 8.7310842 c -0.3463495,0 -0.6367762,-0.22101 -0.7456643,-0.5291635 z"
       style="opacity:1;fill:#ffaf7a;fill-opacity:1;stroke:none;stroke-width:0.52915561;stroke-linecap:butt;stroke-linejoin:round;stroke-miterlimit:4;stroke-dasharray:none;stroke-dashoffset:0;stroke-opacity:1" />
    <path
       sodipodi:nodetypes="ccccc"
       inkscape:connector-curvature="0"
       id="path5939"
       d="M 10.053954,0.96893365 V 1.1089759 c 1.532493,0.4405578 2.889659,1.3476489 3.882829,2.5951748 h 0.535349 C 13.362356,2.3062694 11.799977,1.3390271 10.053954,0.96893365 Z"
       style="opacity:1;fill:#ffaf7a;fill-opacity:1;stroke:none;stroke-width:0.52915561;stroke-linecap:butt;stroke-linejoin:round;stroke-miterlimit:4;stroke-dasharray:none;stroke-dashoffset:0;stroke-opacity:1" />
    <path
       sodipodi:nodetypes="ccccccc"
       inkscape:connector-curvature="0"
       id="path5941"
       d="m 2.3813104,5.2916412 c 0.4397218,0 0.7937217,0.354008 0.7937217,0.7937453 0,0.4397274 0.3539999,0.7937452 0.7937217,0.7937452 h 0.5291478 c -0.4397218,0 -0.7937217,-0.3540178 -0.7937217,-0.7937452 0,-0.4397373 -0.3539999,-0.7937453 -0.7937217,-0.7937453 z"
       style="opacity:1;fill:#ffaf7a;fill-opacity:1;stroke:none;stroke-width:0.52915561;stroke-linecap:butt;stroke-linejoin:round;stroke-miterlimit:4;stroke-dasharray:none;stroke-dashoffset:0;stroke-opacity:1" />
    <path
       sodipodi:nodetypes="ccccccc"
       inkscape:connector-curvature="0"
       id="path5943"
       d="m 4.4979016,6.8791317 c 0.4397219,0 0.7937218,0.3540079 0.7937218,0.7937453 0,0.4397274 -0.3539999,0.7937452 -0.7937218,0.7937452 h 0.5291479 c 0.4397218,0 0.7937217,-0.3540178 0.7937217,-0.7937452 0,-0.4397374 -0.3539999,-0.7937453 -0.7937217,-0.7937453 z"
       style="opacity:1;fill:#ffaf7a;fill-opacity:1;stroke:none;stroke-width:0.52915561;stroke-linecap:butt;stroke-linejoin:round;stroke-miterlimit:4;stroke-dasharray:none;stroke-dashoffset:0;stroke-opacity:1" />
    <path
       inkscape:connector-curvature="0"
       style="color:#000000;font-style:normal;font-variant:normal;font-weight:normal;font-stretch:normal;font-size:medium;line-height:normal;font-family:sans-serif;font-variant-ligatures:normal;font-variant-position:normal;font-variant-caps:normal;font-variant-numeric:normal;font-variant-alternates:normal;font-feature-settings:normal;text-indent:0;text-align:start;text-decoration:none;text-decoration-line:none;text-decoration-style:solid;text-decoration-color:#000000;letter-spacing:normal;word-spacing:normal;text-transform:none;writing-mode:lr-tb;direction:ltr;text-orientation:mixed;dominant-baseline:auto;baseline-shift:baseline;text-anchor:start;white-space:normal;shape-padding:0;clip-rule:nonzero;display:inline;overflow:visible;visibility:visible;opacity:1;isolation:auto;mix-blend-mode:normal;color-interpolation:sRGB;color-interpolation-filters:linearRGB;solid-color:#000000;solid-opacity:1;vector-effect:none;fill:#ffca28;fill-opacity:1;fill-rule:nonzero;stroke:none;stroke-width:0.52915561;stroke-linecap:square;stroke-linejoin:round;stroke-miterlimit:4;stroke-dasharray:none;stroke-dashoffset:0;stroke-opacity:1;color-rendering:auto;image-rendering:auto;shape-rendering:auto;text-rendering:auto;enable-background:accumulate"
       d="m 1.4625361,11.588377 -0.1173013,0.236159 c -0.64848314,1.309564 -0.92003322,2.414011 -0.78028637,3.218906 0.0717638,0.413336 0.25960995,0.766322 0.56635347,1.005618 0.2991643,0.233382 0.7072,0.352022 1.1781807,0.355015 0.9215182,0.0059 2.1129507,-0.414599 3.420858,-1.145144 1.3079074,-0.730544 2.7474511,-1.779505 4.1789243,-3.068528 L 10.105112,12.013671 9.7516574,11.621449 9.5542604,11.796631 C 8.1477743,13.063153 6.7366186,14.092174 5.4730012,14.797981 4.2093843,15.503788 3.1083198,15.878937 2.3120664,15.873878 1.9241797,15.871413 1.6475639,15.780067 1.4558184,15.630483 1.2742247,15.488821 1.1413465,15.266304 1.0868618,14.952492 0.98126945,14.344316 1.1698063,13.413284 1.7658659,12.175934 1.6615617,11.987304 1.5648248,11.79394 1.4759715,11.595094 Z"
       id="path6006"
       sodipodi:nodetypes="ccccccccccccccccc" />
    <path
       inkscape:connector-curvature="0"
       style="opacity:1;fill:#ecb200;fill-opacity:1;stroke:none;stroke-width:0.52915561;stroke-linecap:round;stroke-linejoin:round;stroke-miterlimit:4;stroke-dasharray:none;stroke-dashoffset:0;stroke-opacity:1"
       d="m 9.7516574,11.621449 -0.197397,0.175182 c -0.014301,0.01287 -0.02859,0.0249 -0.04289,0.03772 0.099201,0.147677 0.2078755,0.287724 0.3229661,0.421678 0.024942,-0.02231 0.049992,-0.04317 0.074929,-0.06563 l 0.1958475,-0.176732 z"
       id="path6021"
       sodipodi:nodetypes="ccccccc" />
    <path
       inkscape:connector-curvature="0"
       style="color:#000000;font-style:normal;font-variant:normal;font-weight:normal;font-stretch:normal;font-size:medium;line-height:normal;font-family:sans-serif;font-variant-ligatures:normal;font-variant-position:normal;font-variant-caps:normal;font-variant-numeric:normal;font-variant-alternates:normal;font-feature-settings:normal;text-indent:0;text-align:start;text-decoration:none;text-decoration-line:none;text-decoration-style:solid;text-decoration-color:#000000;letter-spacing:normal;word-spacing:normal;text-transform:none;writing-mode:lr-tb;direction:ltr;text-orientation:mixed;dominant-baseline:auto;baseline-shift:baseline;text-anchor:start;white-space:normal;shape-padding:0;clip-rule:nonzero;display:inline;overflow:visible;visibility:visible;opacity:1;isolation:auto;mix-blend-mode:normal;color-interpolation:sRGB;color-interpolation-filters:linearRGB;solid-color:#000000;solid-opacity:1;vector-effect:none;fill:#ffca28;fill-opacity:1;fill-rule:nonzero;stroke:none;stroke-width:0.52915561;stroke-linecap:square;stroke-linejoin:round;stroke-miterlimit:4;stroke-dasharray:none;stroke-dashoffset:0;stroke-opacity:1;color-rendering:auto;image-rendering:auto;shape-rendering:auto;text-rendering:auto;enable-background:accumulate"
       d="M 14.599768,0.52916985 C 13.82098,0.53031284 12.8362,0.83101102 11.700306,1.4086975 l -0.106967,0.054777 c 0.202633,0.090372 0.401093,0.1887401 0.594776,0.2961042 1.130415,-0.5426035 2.044746,-0.76022957 2.670542,-0.6862589 0.327068,0.038661 0.557875,0.1495237 0.719828,0.3219422 0.161951,0.1724192 0.266952,0.4198854 0.291444,0.7772089 0.05037,0.7348154 -0.264593,1.7768184 -0.907406,2.9956647 -0.642813,1.2188463 -1.605077,2.598356 -2.814715,3.9914638 l -0.175177,0.1999865 0.400478,0.348297 0.173627,-0.2020537 C 13.778435,8.0873138 14.763048,6.6810816 15.430695,5.4151472 16.098342,4.1492132 16.457364,3.009769 16.397526,2.136814 16.366898,1.6899435 16.222925,1.3082117 15.96346,1.0319785 15.703995,0.75574598 15.340553,0.59682718 14.921184,0.54725649 14.818501,0.53511902 14.711023,0.52900642 14.599768,0.52916985 Z"
       id="path6026"
       sodipodi:nodetypes="ccccccccccccccccc" />
    <path
       style="color:#000000;font-style:normal;font-variant:normal;font-weight:normal;font-stretch:normal;font-size:medium;line-height:normal;font-family:sans-serif;font-variant-ligatures:normal;font-variant-position:normal;font-variant-caps:normal;font-variant-numeric:normal;font-variant-alternates:normal;font-feature-settings:normal;text-indent:0;text-align:start;text-decoration:none;text-decoration-line:none;text-decoration-style:solid;text-decoration-color:#000000;letter-spacing:normal;word-spacing:normal;text-transform:none;writing-mode:lr-tb;direction:ltr;text-orientation:mixed;dominant-baseline:auto;baseline-shift:baseline;text-anchor:start;white-space:normal;shape-padding:0;clip-rule:nonzero;display:inline;overflow:visible;visibility:visible;opacity:1;isolation:auto;mix-blend-mode:normal;color-interpolation:sRGB;color-interpolation-filters:linearRGB;solid-color:#000000;solid-opacity:1;vector-effect:none;fill:#ecb200;fill-opacity:1;fill-rule:nonzero;stroke:none;stroke-width:0.52915561;stroke-linecap:square;stroke-linejoin:round;stroke-miterlimit:4;stroke-dasharray:none;stroke-dashoffset:0;stroke-opacity:1;color-rendering:auto;image-rendering:auto;shape-rendering:auto;text-rendering:auto;enable-background:accumulate"
       d="m 14.599927,0.52919743 c -0.04501,6.607e-5 -0.09315,0.004655 -0.139523,0.006718 0.06827,0.002801 0.137854,0.003719 0.202567,0.0113688 0.41937,0.0495707 0.782828,0.20848963 1.042293,0.48472207 0.259465,0.2762331 0.403445,0.657965 0.434074,1.1048356 0.05984,0.8729548 -0.2992,2.0123998 -0.966847,3.2783337 -0.667648,1.2659345 -1.652306,2.6721674 -2.884005,4.0906824 l -0.06304,0.07338 0.147792,0.1286735 0.173629,-0.2020537 C 13.778562,8.087343 14.76322,6.6811101 15.430868,5.4151756 16.098515,4.1492417 16.457553,3.0097967 16.397715,2.1368419 16.367086,1.6899713 16.223106,1.3082394 15.963641,1.0320062 15.704176,0.75577372 15.340718,0.59685478 14.921348,0.54728408 14.818665,0.53514661 14.711182,0.529034 14.599927,0.52919743 Z"
       id="path890"
       inkscape:connector-curvature="0"
       sodipodi:nodetypes="ccccccccccccccc" />
    <path
       style="color:#000000;font-style:normal;font-variant:normal;font-weight:normal;font-stretch:normal;font-size:medium;line-height:normal;font-family:sans-serif;font-variant-ligatures:normal;font-variant-position:normal;font-variant-caps:normal;font-variant-numeric:normal;font-variant-alternates:normal;font-feature-settings:normal;text-indent:0;text-align:start;text-decoration:none;text-decoration-line:none;text-decoration-style:solid;text-decoration-color:#000000;letter-spacing:normal;word-spacing:normal;text-transform:none;writing-mode:lr-tb;direction:ltr;text-orientation:mixed;dominant-baseline:auto;baseline-shift:baseline;text-anchor:start;white-space:normal;shape-padding:0;clip-rule:nonzero;display:inline;overflow:visible;visibility:visible;opacity:1;isolation:auto;mix-blend-mode:normal;color-interpolation:sRGB;color-interpolation-filters:linearRGB;solid-color:#000000;solid-opacity:1;vector-effect:none;fill:#ecb200;fill-opacity:1;fill-rule:nonzero;stroke:none;stroke-width:0.52915561;stroke-linecap:square;stroke-linejoin:round;stroke-miterlimit:4;stroke-dasharray:none;stroke-dashoffset:0;stroke-opacity:1;color-rendering:auto;image-rendering:auto;shape-rendering:auto;text-rendering:auto;enable-background:accumulate"
       d="m 14.352402,1.0593945 c -0.580547,-4.577e-4 -1.3574,0.2076945 -2.284053,0.6371667 0.03988,0.021152 0.0804,0.041153 0.119887,0.063045 0.918064,-0.4406742 1.690367,-0.6636379 2.28457,-0.6934937 -0.04021,-0.0022 -0.07813,-0.00668 -0.120404,-0.00672 z"
       id="path885"
       inkscape:connector-curvature="0"
       sodipodi:nodetypes="ccccc" />
    <path
       style="color:#000000;font-style:normal;font-variant:normal;font-weight:normal;font-stretch:normal;font-size:medium;line-height:normal;font-family:sans-serif;font-variant-ligatures:normal;font-variant-position:normal;font-variant-caps:normal;font-variant-numeric:normal;font-variant-alternates:normal;font-feature-settings:normal;text-indent:0;text-align:start;text-decoration:none;text-decoration-line:none;text-decoration-style:solid;text-decoration-color:#000000;letter-spacing:normal;word-spacing:normal;text-transform:none;writing-mode:lr-tb;direction:ltr;text-orientation:mixed;dominant-baseline:auto;baseline-shift:baseline;text-anchor:start;white-space:normal;shape-padding:0;clip-rule:nonzero;display:inline;overflow:visible;visibility:visible;opacity:1;isolation:auto;mix-blend-mode:normal;color-interpolation:sRGB;color-interpolation-filters:linearRGB;solid-color:#000000;solid-opacity:1;vector-effect:none;fill:#ecb200;fill-opacity:1;fill-rule:nonzero;stroke:none;stroke-width:0.52915561;stroke-linecap:square;stroke-linejoin:round;stroke-miterlimit:4;stroke-dasharray:none;stroke-dashoffset:0;stroke-opacity:1;color-rendering:auto;image-rendering:auto;shape-rendering:auto;text-rendering:auto;enable-background:accumulate"
       d="m 9.9739445,11.867974 -0.064594,0.05788 C 8.4778771,13.214874 7.0382671,14.263836 5.7303597,14.99438 4.4224523,15.724925 3.2309658,16.145423 2.3094476,16.139523 1.8384668,16.13653 1.4304125,16.017891 1.1312482,15.784508 0.82450466,15.545213 0.63664953,15.192226 0.56488573,14.778891 c -0.0157821,-0.0909 -0.0246314,-0.186848 -0.0299717,-0.285253 -0.006693,0.194999 5.6884e-4,0.380479 0.0299717,0.549834 0.0717638,0.413336 0.25961893,0.766322 0.56636247,1.005618 0.2991643,0.233382 0.7072186,0.352022 1.1781994,0.355015 0.9215182,0.0059 2.1130047,-0.414599 3.4209121,-1.145143 1.3079074,-0.730544 2.7475174,-1.779506 4.1789905,-3.068529 L 10.1052,12.013701 Z"
       id="path899"
       inkscape:connector-curvature="0"
       sodipodi:nodetypes="cccccccccccccc" />
    <path
       style="color:#000000;font-style:normal;font-variant:normal;font-weight:normal;font-stretch:normal;font-size:medium;line-height:normal;font-family:sans-serif;font-variant-ligatures:normal;font-variant-position:normal;font-variant-caps:normal;font-variant-numeric:normal;font-variant-alternates:normal;font-feature-settings:normal;text-indent:0;text-align:start;text-decoration:none;text-decoration-line:none;text-decoration-style:solid;text-decoration-color:#000000;letter-spacing:normal;word-spacing:normal;text-transform:none;writing-mode:lr-tb;direction:ltr;text-orientation:mixed;dominant-baseline:auto;baseline-shift:baseline;text-anchor:start;white-space:normal;shape-padding:0;clip-rule:nonzero;display:inline;overflow:visible;visibility:visible;opacity:1;isolation:auto;mix-blend-mode:normal;color-interpolation:sRGB;color-interpolation-filters:linearRGB;solid-color:#000000;solid-opacity:1;vector-effect:none;fill:#ecb200;fill-opacity:1;fill-rule:nonzero;stroke:none;stroke-width:0.52915561;stroke-linecap:square;stroke-linejoin:round;stroke-miterlimit:4;stroke-dasharray:none;stroke-dashoffset:0;stroke-opacity:1;color-rendering:auto;image-rendering:auto;shape-rendering:auto;text-rendering:auto;enable-background:accumulate"
       d="m 1.701228,12.053491 c -0.4787361,1.029654 -0.6697902,1.839634 -0.6371578,2.416893 0.029484,-0.580808 0.2453935,-1.347074 0.7017521,-2.29442 -0.022282,-0.0403 -0.043006,-0.08174 -0.064594,-0.122473 z"
       id="path894"
       inkscape:connector-curvature="0"
       sodipodi:nodetypes="cccc" />
    <path
       sodipodi:nodetypes="ccccccc"
       inkscape:connector-curvature="0"
       id="path5945"
       d="m 13.310965,4.7624678 c -2.384195,-1.8e-6 -4.3169674,2.0137746 -4.3169654,4.497893 3.3e-6,2.4841142 1.9327744,4.4978852 4.3169654,4.4978832 1.039917,-0.002 2.04419,-0.39506 2.828188,-1.106904 -2.215175,-0.219944 -3.906972,-2.158211 -3.907428,-4.4766826 0.002,-1.3015181 0.54501,-2.5383215 1.488772,-3.3909897 -0.13611,-0.013821 -0.272775,-0.020896 -0.409532,-0.0212 z"
       style="opacity:1;fill:#ffca28;fill-opacity:1;stroke:none;stroke-width:0.52915561;stroke-linecap:round;stroke-linejoin:round;stroke-miterlimit:4;stroke-dasharray:none;stroke-dashoffset:0;stroke-opacity:1" />
    <path
       sodipodi:nodetypes="ccccc"
       inkscape:connector-curvature="0"
       id="path5947"
       d="m 11.702373,8.347251 c 0,3.145524 2.758223,4.355467 4.43678,4.304103 -2.215263,-0.219842 -3.907175,-2.158149 -3.907632,-4.4767018 0.002,-1.3015126 0.544994,-2.538314 1.488744,-3.3909871 -1.285146,0.5079761 -2.017892,2.0954665 -2.017892,3.5635859 z"
       style="opacity:1;fill:#ecb200;fill-opacity:1;stroke:none;stroke-width:0.52915561;stroke-linecap:round;stroke-linejoin:round;stroke-miterlimit:4;stroke-dasharray:none;stroke-dashoffset:0;stroke-opacity:1" />
  </g>
</svg>
